<svg xmlns="http://www.w3.org/2000/svg" width="112" height="112" viewBox="0 0 112 112">
  <g id="msk_logo" data-name="msk logo" transform="translate(-587 -2587)">
    <rect id="Rectangle_4" data-name="Rectangle 4" width="112" height="112" transform="translate(587 2587)" fill="#fff"/>
    <g id="msk" transform="translate(597.873 2588)">
      <path id="Path_3" data-name="Path 3" d="M375.977-552.523l-7.477,7.477,1.589,1.565,1.565,1.589,4.79-4.79,4.79-4.79v17.406l-5.3.047-5.327.07v4.439l5.327.07,5.3.047v3.738H370.463l.07,2.149.07,2.173,5.327.07,5.3.047v3.738l-5.3.047-5.327.07-.07,2.149-.07,2.173h10.771v12.149h4.439v-12.149H396.21l-.07-2.173-.07-2.149-5.187-.07-5.21-.047v-3.738h10.28v-4.439h-10.28v-3.738l5.21-.047,5.187-.07v-4.439l-5.187-.07-5.21-.047v-17.406l4.743,4.743,4.72,4.72,1.589-1.589,1.565-1.565-7.43-7.43L383.453-560Z" transform="translate(-338.268 585.444)"/>
      <path id="Path_2" data-name="Path 2" d="M304.5-611.563a48.38,48.38,0,0,0-14.9,4.4c-7.436,3.815-13.809,10.741-17.622,19.164-6.373,14.117-7.708,36.626-3.159,53.736,5.012,18.841,17.3,29.847,35.816,32.136a81.157,81.157,0,0,0,13.618,0c10.377-1.262,18.684-5.283,25.058-12.179,6.646-7.131,10.649-16.758,12.583-30.082.381-2.729.49-5.195.49-12.766,0-10.1-.218-12.62-1.661-19.223-4.548-20.808-17.213-32.9-36.933-35.188A80.4,80.4,0,0,0,304.5-611.563Zm12.747,5.576c17.077,2,27.754,12.209,31.921,30.551,1.307,5.782,1.716,10.125,1.743,18.137a74.664,74.664,0,0,1-1.362,16.67c-3.268,17.667-12.883,28.937-27.427,32.165a62.123,62.123,0,0,1-20.427.352,37.243,37.243,0,0,1-14.735-6.339,40.234,40.234,0,0,1-8.117-8.951c-4.875-8.041-7.163-17.374-7.49-30.551-.463-18.841,3.377-32.547,11.63-41.5A34.814,34.814,0,0,1,291.315-602a41.307,41.307,0,0,1,13.182-3.991A73.94,73.94,0,0,1,317.244-605.987Z" transform="translate(-266.129 611.838)"/>
    </g>
  </g>
</svg>
