<?xml version="1.0" standalone="no"?>
<!DOCTYPE svg PUBLIC "-//W3C//DTD SVG 20010904//EN"
 "http://www.w3.org/TR/2001/REC-SVG-20010904/DTD/svg10.dtd">
<svg version="1.0" xmlns="http://www.w3.org/2000/svg"
 width="867.000000pt" height="617.000000pt" viewBox="0 0 867.000000 617.000000"
 preserveAspectRatio="xMidYMid meet">

<g transform="translate(0.000000,617.000000) scale(0.100000,-0.100000)"
fill="#000000" stroke="none">
<path d="M4070 6109 c-188 -22 -397 -79 -547 -150 -273 -130 -507 -366 -647
-653 -234 -481 -283 -1248 -116 -1831 184 -642 635 -1017 1315 -1095 115 -13
383 -13 500 0 381 43 686 180 920 415 244 243 391 571 462 1025 14 93 18 177
18 435 0 344 -8 430 -61 655 -167 709 -632 1121 -1356 1199 -112 13 -379 12
-488 0z m468 -190 c627 -68 1019 -416 1172 -1041 48 -197 63 -345 64 -618 0
-259 -9 -365 -50 -568 -120 -602 -473 -986 -1007 -1096 -200 -42 -560 -47
-750 -12 -203 38 -394 114 -541 216 -92 63 -236 211 -298 305 -179 274 -263
592 -275 1041 -17 642 124 1109 427 1414 83 84 204 172 306 223 123 62 319
117 484 136 109 12 356 13 468 0z"/>
<path d="M4005 5280 l-320 -320 68 -67 67 -68 205 205 205 205 0 -372 0 -373
-227 -2 -228 -3 0 -95 0 -95 228 -3 227 -2 0 -80 0 -80 -230 0 -231 0 3 -92 3
-93 228 -3 227 -2 0 -80 0 -80 -227 -2 -228 -3 -3 -92 -3 -93 231 0 230 0 0
-260 0 -260 95 0 95 0 0 260 0 260 225 0 226 0 -3 93 -3 92 -222 3 -223 2 0
80 0 80 220 0 220 0 0 95 0 95 -220 0 -220 0 0 80 0 80 223 2 222 3 0 95 0 95
-222 3 -223 2 0 373 0 372 203 -203 202 -202 68 68 67 67 -318 318 -317 317
-320 -320z"/>
<path d="M4540 2818 c-54 -85 -53 -94 10 -90 46 4 50 2 50 -18 0 -11 5 -18 10
-15 6 3 10 15 10 26 0 10 5 19 10 19 6 0 10 5 10 10 0 6 -7 10 -15 10 -10 0
-15 10 -15 29 0 42 -11 91 -21 91 -5 0 -27 -28 -49 -62z m48 -41 c-2 -16 -11
-23 -30 -25 -34 -4 -34 -3 -6 43 18 31 23 34 30 21 5 -9 8 -27 6 -39z"/>
<path d="M4000 2860 c0 -5 8 -10 18 -10 16 0 18 -6 11 -52 -10 -74 -11 -108 0
-108 11 0 18 28 26 113 l7 67 -31 0 c-17 0 -31 -4 -31 -10z"/>
<path d="M4142 2848 c-15 -15 -16 -50 -2 -64 8 -8 6 -15 -5 -24 -20 -16 -19
-54 1 -71 26 -22 84 -16 105 10 23 28 23 35 3 56 -13 12 -14 19 -5 28 15 15
14 50 -1 65 -7 7 -28 12 -48 12 -20 0 -41 -5 -48 -12z m84 -23 c8 -19 -13 -45
-36 -45 -23 0 -44 26 -36 45 3 9 18 15 36 15 18 0 33 -6 36 -15z m-6 -80 c19
-22 4 -45 -28 -45 -38 0 -60 24 -42 45 16 19 54 19 70 0z"/>
<path d="M4337 2842 c-20 -22 -22 -43 -5 -60 9 -9 9 -15 0 -24 -19 -19 -14
-55 10 -72 32 -23 65 -20 93 8 26 26 25 50 -4 73 -9 7 -11 13 -5 13 20 0 25
32 9 56 -19 30 -74 33 -98 6z m81 -29 c4 -30 -42 -43 -65 -20 -14 13 -14 19
-3 32 19 23 64 15 68 -12z m2 -68 c26 -31 -13 -60 -58 -44 -12 5 -22 14 -22
22 0 34 56 50 80 22z"/>
<path d="M2556 1454 c-19 -18 -21 -55 -4 -72 7 -7 24 -12 38 -12 14 0 31 5 38
12 28 28 2 88 -38 88 -10 0 -26 -7 -34 -16z"/>
<path d="M3090 1451 c0 -13 9 -20 30 -24 l30 -6 0 -235 0 -234 -31 -7 c-21 -5
-29 -12 -27 -23 3 -14 19 -17 101 -20 88 -2 97 -1 97 15 0 11 -12 23 -30 30
l-30 11 0 256 0 256 -70 0 c-62 0 -70 -2 -70 -19z"/>
<path d="M3860 1450 c0 -13 7 -20 18 -20 39 0 42 -16 42 -248 l0 -224 -30 -11
c-18 -7 -30 -19 -30 -30 0 -16 9 -17 97 -15 82 3 98 6 101 20 2 11 -6 18 -27
23 l-31 7 0 259 0 259 -70 0 c-63 0 -70 -2 -70 -20z"/>
<path d="M7646 1454 c-19 -18 -21 -55 -4 -72 7 -7 24 -12 38 -12 14 0 31 5 38
12 28 28 2 88 -38 88 -10 0 -26 -7 -34 -16z"/>
<path d="M3775 1451 c-3 -6 -40 -8 -88 -5 -73 5 -87 3 -126 -18 -53 -28 -81
-76 -81 -136 0 -82 34 -113 182 -166 76 -28 98 -50 98 -101 0 -57 -32 -85 -98
-85 -58 0 -105 29 -138 86 -41 70 -54 59 -54 -47 0 -90 0 -91 23 -84 28 10 71
10 127 1 98 -17 186 37 209 127 24 98 -11 148 -141 196 -106 41 -128 59 -128
110 0 102 149 107 197 6 10 -21 24 -35 35 -35 16 0 18 9 18 80 0 63 -3 80 -14
80 -8 0 -17 -4 -21 -9z"/>
<path d="M50 1420 c0 -14 7 -20 21 -20 11 0 29 -5 40 -10 18 -10 19 -23 19
-206 0 -194 0 -195 -25 -219 -13 -14 -31 -25 -40 -25 -8 0 -15 -9 -15 -20 0
-19 7 -20 100 -20 93 0 100 1 100 20 0 13 -9 22 -25 26 -14 3 -30 14 -35 24
-6 11 -10 103 -10 207 l1 188 87 -230 c60 -158 92 -231 103 -233 13 -2 34 45
99 220 45 123 84 225 86 227 2 2 4 -86 4 -197 l0 -202 -22 0 c-32 0 -52 -15
-45 -34 9 -23 235 -24 244 -1 8 21 0 27 -44 34 l-38 6 -3 217 -2 218 22 4 c13
3 32 7 43 8 11 2 21 11 23 21 3 16 -5 17 -98 15 l-103 -3 -70 -197 c-39 -109
-73 -195 -77 -192 -3 3 -37 92 -75 197 l-70 192 -98 3 c-92 3 -97 2 -97 -18z"/>
<path d="M5430 1420 c0 -14 7 -20 24 -20 57 0 56 6 56 -226 0 -163 -3 -216
-12 -218 -7 -3 -25 -7 -40 -10 -19 -4 -28 -13 -28 -27 0 -19 5 -20 117 -17
102 3 118 5 121 20 2 12 -6 20 -30 26 l-33 8 -3 80 c-3 76 -1 81 25 106 l28
27 68 -95 c37 -52 67 -101 67 -108 0 -8 -11 -17 -25 -20 -16 -4 -25 -13 -25
-27 0 -19 5 -20 117 -17 103 3 118 5 121 21 3 12 -5 19 -25 23 -42 8 -51 18
-152 153 l-92 124 38 39 c65 68 133 120 171 133 20 7 38 20 40 29 3 14 -11 16
-102 16 -98 0 -106 -1 -106 -19 0 -12 8 -21 22 -23 12 -2 23 -9 26 -15 2 -7
-42 -59 -97 -115 l-101 -103 3 115 2 115 35 5 c23 3 36 11 38 23 3 15 -8 17
-122 17 -119 0 -126 -1 -126 -20z"/>
<path d="M6428 1397 c-26 -10 -28 -15 -28 -64 0 -51 -1 -53 -32 -61 -18 -4
-33 -15 -33 -23 0 -9 12 -15 33 -17 l32 -3 0 -140 c0 -135 1 -141 25 -164 44
-45 136 -29 166 27 16 29 -7 42 -32 17 -11 -11 -30 -19 -44 -19 -36 0 -45 32
-45 165 l0 114 58 3 c50 3 57 6 60 26 3 21 0 22 -57 22 l-61 0 0 65 c0 36 -3
65 -7 64 -5 -1 -20 -6 -35 -12z"/>
<path d="M6713 1395 c-31 -13 -33 -17 -33 -64 0 -48 -1 -51 -32 -59 -18 -4
-33 -15 -33 -23 0 -9 12 -15 33 -17 l32 -3 0 -130 c0 -174 13 -199 101 -199
48 0 107 46 95 75 -6 17 -8 17 -29 -4 -27 -25 -72 -28 -81 -5 -3 9 -6 72 -6
140 l0 124 55 0 c52 0 55 1 55 25 0 24 -3 25 -55 25 l-55 0 0 65 c0 36 -3 65
-7 65 -5 -1 -23 -7 -40 -15z"/>
<path d="M8536 1325 c-16 -9 -34 -22 -40 -31 -9 -11 -32 -16 -85 -17 -70 -2
-74 -3 -107 -39 -46 -51 -48 -111 -5 -160 l29 -33 -24 -18 c-35 -26 -33 -73 5
-95 l29 -16 -39 -18 c-72 -32 -70 -108 3 -139 51 -22 175 -18 222 6 80 41 105
121 54 172 -24 23 -36 27 -110 30 -117 6 -130 9 -126 36 3 19 10 23 68 27 72
6 99 17 129 56 34 44 21 150 -21 167 -10 4 -8 10 5 21 17 13 21 12 38 -5 33
-33 77 8 51 47 -13 20 -46 24 -76 9z m-79 -97 c18 -17 23 -32 23 -75 0 -84
-47 -117 -104 -72 -22 18 -26 28 -26 75 0 41 5 59 20 74 26 26 58 25 87 -2z
m57 -338 c40 -15 36 -64 -6 -90 -37 -23 -122 -27 -162 -8 -45 20 -46 75 -3 96
28 14 138 15 171 2z"/>
<path d="M860 1269 c-115 -46 -142 -242 -45 -328 43 -37 70 -45 139 -39 54 4
94 27 124 69 10 15 11 24 4 31 -8 8 -21 2 -47 -21 -61 -53 -144 -40 -180 29
-8 16 -15 40 -15 54 l0 25 123 3 122 3 -3 40 c-5 56 -30 104 -66 126 -34 21
-114 25 -156 8z m115 -44 c17 -16 25 -35 25 -60 l0 -35 -80 0 c-89 0 -92 3
-66 64 25 59 79 73 121 31z"/>
<path d="M1117 1273 c-15 -15 -5 -31 23 -36 l30 -6 0 -140 0 -139 -31 -7 c-21
-5 -29 -12 -27 -23 5 -25 181 -25 186 -1 2 11 -6 19 -22 23 l-26 6 0 122 c0
138 5 147 76 148 66 0 74 -16 74 -153 l0 -117 -26 -6 c-16 -4 -24 -12 -22 -23
3 -13 19 -17 91 -19 80 -3 87 -1 87 17 0 12 -9 21 -25 25 -25 6 -25 7 -25 126
0 112 1 120 22 134 12 9 39 16 60 16 58 0 68 -23 68 -157 0 -112 0 -113 -26
-119 -16 -4 -24 -12 -22 -23 5 -24 181 -24 186 1 2 11 -6 18 -26 23 l-30 6 -4
134 c-3 117 -6 137 -24 162 -17 22 -30 29 -67 31 -45 3 -117 -23 -132 -48 -4
-6 -18 2 -35 20 -36 39 -95 41 -157 5 l-43 -24 0 25 c0 23 -3 24 -63 24 -35 0
-67 -3 -70 -7z"/>
<path d="M1866 1257 c-61 -34 -88 -94 -84 -183 3 -60 8 -77 32 -108 35 -46 79
-66 147 -66 96 0 159 51 179 148 21 94 -25 192 -103 221 -48 19 -128 13 -171
-12z m159 -43 c43 -46 47 -189 8 -242 -27 -36 -102 -43 -132 -13 -51 51 -54
208 -5 262 27 30 99 26 129 -7z"/>
<path d="M2170 1260 c0 -13 7 -20 18 -20 37 0 42 -20 42 -153 l0 -129 -30 -11
c-18 -7 -30 -19 -30 -29 0 -16 11 -18 100 -18 92 0 100 2 100 19 0 13 -9 21
-30 26 l-30 7 0 123 c0 117 1 125 22 139 31 22 48 20 48 -4 0 -12 10 -25 25
-32 21 -9 28 -8 45 7 24 22 25 43 4 73 -21 30 -69 29 -117 -3 l-37 -26 0 26
c0 24 -2 25 -65 25 -58 0 -65 -2 -65 -20z"/>
<path d="M2497 1273 c-15 -15 -5 -31 23 -36 l30 -6 0 -140 0 -139 -31 -7 c-21
-5 -29 -12 -27 -23 3 -14 18 -17 98 -17 80 0 95 3 98 17 2 11 -6 18 -27 23
l-31 7 0 164 0 164 -63 0 c-35 0 -67 -3 -70 -7z"/>
<path d="M2779 1257 c-65 -44 -62 -112 5 -105 29 3 31 6 34 45 3 34 7 42 28
47 40 10 77 -14 87 -57 5 -20 7 -43 4 -50 -3 -7 -29 -19 -58 -25 -114 -27
-159 -64 -159 -132 0 -79 116 -106 189 -44 29 24 30 24 36 4 9 -30 41 -42 86
-35 29 5 39 12 39 25 0 13 -9 20 -27 22 l-28 3 -5 130 c-3 72 -9 138 -14 148
-24 50 -156 65 -217 24z m161 -211 c0 -37 -5 -48 -31 -70 -37 -31 -62 -33 -89
-6 -38 38 -20 82 45 105 67 24 75 21 75 -29z"/>
<path d="M4153 1255 c-105 -64 -112 -254 -12 -326 42 -30 138 -38 191 -16 96
40 137 197 74 289 -37 55 -70 72 -144 76 -58 2 -73 -1 -109 -23z m162 -39 c29
-29 39 -77 33 -156 -6 -83 -30 -114 -90 -118 -40 -3 -48 1 -71 28 -33 38 -44
107 -29 180 14 66 39 90 94 90 28 0 46 -7 63 -24z"/>
<path d="M4543 1266 c-37 -17 -55 -47 -51 -84 2 -22 9 -28 35 -30 36 -4 59 24
48 58 -13 42 84 49 106 8 6 -10 9 -35 7 -54 -3 -36 -4 -36 -80 -60 -102 -32
-133 -59 -133 -113 0 -52 27 -81 84 -88 35 -5 50 -1 90 25 l49 30 6 -24 c8
-29 45 -40 89 -27 43 12 49 43 9 43 l-30 0 -4 135 c-3 131 -4 135 -30 162 -24
24 -37 28 -95 30 -44 2 -79 -2 -100 -11z m147 -226 c0 -46 -3 -52 -32 -70 -18
-11 -41 -20 -50 -20 -28 0 -49 30 -46 64 2 25 11 35 48 54 69 35 80 31 80 -28z"/>
<path d="M4857 1273 c-15 -15 -5 -31 23 -36 l30 -6 0 -140 0 -139 -31 -7 c-21
-5 -29 -12 -27 -23 3 -14 19 -17 96 -20 85 -3 92 -1 92 17 0 12 -9 21 -25 25
-25 6 -25 7 -25 130 0 122 0 123 25 134 14 7 43 12 65 12 60 0 70 -22 70 -152
0 -106 -1 -109 -25 -120 -14 -6 -25 -19 -25 -30 0 -16 9 -18 90 -18 82 0 90 2
90 19 0 12 -9 21 -25 25 -25 6 -25 8 -25 114 -1 127 -11 181 -41 205 -30 24
-96 22 -152 -7 l-47 -23 0 23 c0 23 -3 24 -63 24 -35 0 -67 -3 -70 -7z"/>
<path d="M6085 1264 c-72 -37 -100 -97 -93 -198 4 -73 22 -106 78 -143 43 -30
130 -31 180 -4 46 24 78 67 62 83 -8 8 -20 3 -47 -21 -63 -55 -150 -38 -181
35 -30 73 -28 74 106 74 141 0 142 1 114 87 -24 74 -64 103 -138 103 -28 0
-64 -7 -81 -16z m120 -39 c17 -16 25 -35 25 -60 l0 -35 -80 0 c-89 0 -92 3
-66 64 25 59 79 73 121 31z"/>
<path d="M6994 1262 c-67 -43 -100 -113 -91 -197 11 -105 61 -156 159 -163 70
-5 108 9 149 56 24 27 28 37 18 43 -9 5 -21 1 -34 -10 -30 -28 -60 -41 -94
-41 -62 0 -100 36 -116 108 l-7 32 126 0 126 0 0 35 c0 46 -21 94 -54 125 -37
34 -137 40 -182 12z m125 -36 c12 -13 24 -40 28 -60 l6 -36 -86 0 -85 0 9 38
c9 42 49 82 83 82 12 0 32 -11 45 -24z"/>
<path d="M7260 1260 c0 -13 7 -20 18 -20 37 0 42 -20 42 -153 l0 -129 -30 -11
c-18 -7 -30 -19 -30 -29 0 -16 11 -18 100 -18 92 0 100 2 100 19 0 13 -9 21
-30 26 l-30 7 0 123 c0 117 1 125 22 139 31 22 48 20 48 -4 0 -12 10 -25 25
-32 21 -9 28 -8 45 7 24 22 25 43 4 73 -21 30 -69 29 -117 -3 l-37 -26 0 26
c0 24 -2 25 -65 25 -58 0 -65 -2 -65 -20z"/>
<path d="M7587 1273 c-15 -15 -5 -31 23 -36 l30 -6 0 -140 0 -139 -31 -7 c-21
-5 -29 -12 -27 -23 3 -14 18 -17 98 -17 80 0 95 3 98 17 2 11 -6 18 -27 23
l-31 7 0 164 0 164 -63 0 c-35 0 -67 -3 -70 -7z"/>
<path d="M7810 1260 c0 -13 7 -20 18 -20 37 0 42 -20 42 -153 l0 -129 -30 -11
c-18 -7 -30 -19 -30 -30 0 -16 9 -17 92 -15 74 2 93 6 96 18 1 9 -9 20 -28 27
l-30 11 0 116 c0 107 1 116 22 130 33 24 114 21 128 -3 5 -11 10 -72 10 -135
0 -116 0 -116 -26 -122 -16 -4 -24 -12 -22 -23 5 -24 181 -24 186 1 2 11 -6
18 -27 23 l-30 6 -3 139 c-3 131 -4 140 -27 164 -33 35 -94 35 -161 1 l-50
-25 0 25 c0 24 -2 25 -65 25 -58 0 -65 -2 -65 -20z"/>
<path d="M2165 597 c-152 -59 -223 -224 -165 -381 35 -92 140 -166 237 -166
79 0 175 56 209 121 27 54 -8 68 -41 16 -67 -105 -221 -103 -292 5 -24 36 -28
53 -31 132 -3 84 -1 95 25 146 22 43 39 60 73 78 82 43 151 17 205 -76 45 -77
55 -69 55 43 0 81 -2 95 -16 95 -9 0 -22 -7 -28 -15 -10 -14 -15 -14 -48 0
-43 18 -140 19 -183 2z"/>
<path d="M4645 586 c-174 -81 -219 -319 -87 -456 48 -49 119 -80 182 -80 65 0
128 29 174 81 47 52 55 72 35 85 -7 4 -26 -10 -46 -35 -44 -53 -80 -71 -139
-71 -109 0 -184 90 -184 220 0 118 47 204 126 230 73 24 152 -18 189 -100 31
-69 45 -53 45 55 0 81 -2 95 -16 95 -9 0 -22 -7 -28 -15 -10 -14 -15 -14 -48
0 -56 23 -143 19 -203 -9z"/>
<path d="M5878 557 c-26 -10 -28 -15 -28 -64 0 -51 -1 -53 -32 -61 -18 -4 -33
-15 -33 -23 0 -9 12 -15 33 -17 l32 -3 0 -140 c0 -135 1 -141 25 -164 44 -45
136 -29 166 27 16 29 -7 42 -32 17 -11 -11 -30 -19 -44 -19 -36 0 -45 32 -45
165 l0 114 58 3 c50 3 57 6 60 26 3 21 0 22 -57 22 l-61 0 0 65 c0 36 -3 65
-7 64 -5 -1 -20 -6 -35 -12z"/>
<path d="M2573 425 c-46 -20 -69 -59 -54 -91 9 -21 17 -25 44 -22 30 3 32 6
35 45 3 34 7 42 27 47 54 14 100 -32 93 -92 -3 -21 -13 -27 -83 -47 -93 -27
-135 -64 -135 -118 0 -85 113 -115 190 -51 l30 26 9 -25 c6 -14 19 -28 31 -32
18 -6 74 1 92 11 15 9 -5 34 -27 34 -31 0 -35 15 -35 146 0 64 -5 124 -10 135
-25 46 -137 65 -207 34z m147 -219 c0 -37 -5 -48 -31 -70 -37 -31 -62 -33 -90
-5 -15 15 -19 28 -14 47 8 35 15 41 61 57 66 24 74 21 74 -29z"/>
<path d="M2880 420 c0 -13 7 -20 18 -20 37 0 42 -20 42 -153 l0 -129 -30 -11
c-18 -7 -30 -19 -30 -30 0 -16 9 -17 92 -15 76 2 93 6 96 19 2 11 -6 19 -22
23 l-26 6 0 125 c0 142 2 145 84 145 61 0 66 -13 66 -154 0 -116 0 -116 -26
-122 -16 -4 -24 -12 -22 -23 5 -24 181 -24 186 1 2 11 -6 18 -27 23 l-30 6 -3
139 c-3 131 -4 140 -27 164 -33 35 -94 35 -161 1 l-50 -25 0 25 c0 24 -2 25
-65 25 -58 0 -65 -2 -65 -20z"/>
<path d="M3420 422 c-19 -10 -48 -38 -65 -61 -27 -38 -30 -51 -30 -115 0 -62
4 -78 27 -113 32 -48 80 -73 142 -73 56 0 103 18 135 54 37 40 14 54 -34 22
-109 -74 -213 19 -191 169 10 63 44 95 100 95 52 0 61 -9 44 -45 -11 -24 -10
-29 11 -46 29 -24 36 -24 61 1 28 28 25 54 -9 92 -25 28 -35 32 -92 36 -49 2
-72 -1 -99 -16z"/>
<path d="M3764 422 c-67 -43 -100 -113 -91 -197 11 -106 61 -157 163 -163 67
-5 102 8 143 52 15 16 21 31 17 42 -6 16 -8 15 -29 -3 -32 -30 -62 -43 -96
-43 -62 0 -100 36 -116 108 l-7 32 126 0 126 0 0 35 c0 46 -21 94 -54 125 -37
34 -137 40 -182 12z m125 -36 c12 -13 24 -40 28 -60 l6 -36 -86 0 -85 0 9 38
c9 42 49 82 83 82 12 0 32 -11 45 -24z"/>
<path d="M4030 420 c0 -13 7 -20 18 -20 37 0 42 -20 42 -153 l0 -129 -30 -11
c-18 -7 -30 -19 -30 -29 0 -16 11 -18 100 -18 92 0 100 2 100 19 0 13 -9 21
-30 26 l-30 7 0 123 c0 117 1 125 22 139 31 22 48 20 48 -4 0 -12 10 -25 25
-32 21 -9 28 -8 45 7 24 22 25 43 4 73 -21 30 -69 29 -117 -3 l-37 -26 0 26
c0 24 -2 25 -65 25 -58 0 -65 -2 -65 -20z"/>
<path d="M5104 426 c-92 -40 -131 -199 -70 -289 52 -76 155 -101 235 -56 46
26 77 67 63 81 -7 7 -22 1 -49 -21 -63 -52 -143 -39 -178 29 -8 16 -15 40 -15
55 l0 25 120 0 120 0 0 41 c0 90 -58 149 -146 149 -27 -1 -63 -7 -80 -14z
m116 -34 c13 -11 23 -33 27 -60 l6 -42 -82 0 c-75 0 -81 2 -81 20 0 28 26 77
47 89 27 16 58 13 83 -7z"/>
<path d="M5360 421 c0 -13 9 -20 30 -24 l30 -6 0 -140 0 -139 -31 -7 c-21 -5
-29 -12 -27 -23 5 -25 181 -25 186 -1 2 11 -6 19 -22 23 l-26 6 0 124 0 124
29 11 c16 7 46 11 67 9 54 -4 64 -29 64 -156 0 -100 -1 -103 -25 -114 -14 -6
-25 -19 -25 -30 0 -16 9 -18 90 -18 80 0 90 2 90 18 0 10 -12 22 -30 29 l-30
11 0 127 c0 131 -11 175 -45 189 -34 13 -93 5 -138 -18 l-47 -23 0 23 c0 23
-3 24 -70 24 -62 0 -70 -2 -70 -19z"/>
<path d="M6161 423 c-18 -9 -45 -34 -60 -57 -23 -35 -26 -50 -26 -122 0 -92
13 -119 75 -161 43 -30 130 -31 180 -4 46 24 78 67 62 83 -8 8 -20 3 -47 -21
-63 -55 -150 -38 -181 35 -30 72 -28 73 109 76 l122 3 -2 42 c-4 89 -60 143
-148 143 -27 0 -65 -8 -84 -17z m124 -38 c17 -16 25 -35 25 -60 l0 -35 -80 0
c-89 0 -92 3 -66 64 25 59 79 73 121 31z"/>
<path d="M6427 433 c-15 -15 -5 -31 23 -36 l30 -6 0 -140 0 -139 -31 -7 c-21
-5 -29 -12 -27 -23 5 -25 201 -25 206 -1 2 11 -8 19 -30 25 l-33 10 -3 116
c-3 115 -2 116 24 137 34 27 40 26 48 -4 4 -16 16 -27 33 -31 49 -13 76 49 41
94 -18 22 -84 14 -117 -14 l-31 -26 0 26 c0 25 -2 26 -63 26 -35 0 -67 -3 -70
-7z"/>
<path d="M6758 183 c20 -4 22 -10 22 -58 0 -30 5 -57 10 -60 6 -4 10 16 10 54
0 54 2 60 23 64 12 2 -3 4 -33 4 -30 0 -45 -2 -32 -4z"/>
<path d="M6880 124 c0 -41 4 -63 10 -59 6 3 10 25 10 48 l1 42 21 -28 21 -28
18 28 19 28 0 -42 c0 -23 5 -45 10 -48 6 -4 10 18 10 59 0 36 -4 66 -9 66 -5
0 -18 -14 -29 -31 l-19 -31 -22 31 c-12 17 -27 31 -32 31 -5 0 -9 -30 -9 -66z"/>
</g>
</svg>
